<?xml version="1.0" encoding="UTF-8" standalone="no"?>
<!DOCTYPE svg PUBLIC "-//W3C//DTD SVG 1.1//EN"
 "http://www.w3.org/Graphics/SVG/1.1/DTD/svg11.dtd">
<!-- Generated by graphviz version 2.40.1 (0)
 -->
<!-- Title: %3 Pages: 1 -->
<svg width="639pt" height="658pt"
 viewBox="0.00 0.00 639.00 658.00" xmlns="http://www.w3.org/2000/svg" xmlns:xlink="http://www.w3.org/1999/xlink">
<g id="graph0" class="graph" transform="scale(1 1) rotate(0) translate(4 654)">
<title>%3</title>
<polygon fill="#ffffff" stroke="transparent" points="-4,4 -4,-654 635,-654 635,4 -4,4"/>
<g id="clust1" class="cluster">
<title>cluster_AWS</title>
<polygon fill="none" stroke="#000000" points="8,-8 8,-642 420,-642 420,-8 8,-8"/>
<text text-anchor="middle" x="214" y="-626.8" font-family="Times,serif" font-size="14.00" fill="#000000">AWS</text>
</g>
<g id="clust2" class="cluster">
<title>cluster_db</title>
<polygon fill="none" stroke="#000000" points="16,-16 16,-180 412,-180 412,-16 16,-16"/>
<text text-anchor="middle" x="214" y="-164.8" font-family="Times,serif" font-size="14.00" fill="#000000">db</text>
</g>
<g id="clust3" class="cluster">
<title>cluster_GCE</title>
<polygon fill="none" stroke="#000000" points="428,-399 428,-534 623,-534 623,-399 428,-399"/>
<text text-anchor="middle" x="525.5" y="-518.8" font-family="Times,serif" font-size="14.00" fill="#000000">GCE</text>
</g>
<!-- service1 -->
<g id="node1" class="node">
<title>service1</title>
<polygon fill="none" stroke="#000000" points="490,-582 490,-603 542,-603 542,-582 490,-582"/>
<text text-anchor="start" x="493" y="-588.8" font-family="Times,serif" font-size="14.00" fill="#000000">service1</text>
</g>
<!-- service2 -->
<g id="node2" class="node">
<title>service2</title>
<polygon fill="none" stroke="#000000" points="172,-344.5 172,-365.5 353,-365.5 353,-344.5 172,-344.5"/>
<text text-anchor="start" x="239.5" y="-351.3" font-family="Times,serif" font-size="14.00" fill="#000000">service2</text>
<polygon fill="none" stroke="#000000" points="172,-277.5 172,-344.5 353,-344.5 353,-277.5 172,-277.5"/>
<polygon fill="#c4c4c4" stroke="transparent" points="177,-320.5 177,-339.5 348,-339.5 348,-320.5 177,-320.5"/>
<text text-anchor="start" x="179" y="-326.3" font-family="Times,serif" font-size="14.00" fill="#000000">hosts:</text>
<text text-anchor="start" x="179" y="-307.3" font-family="Times,serif" font-size="14.00" fill="#000000">&#45; 172.16.1.4</text>
<text text-anchor="start" x="179" y="-288.3" font-family="Times,serif" font-size="14.00" fill="#000000">&#45; 172.16.1.5</text>
<polygon fill="none" stroke="#000000" points="172,-248.5 172,-277.5 353,-277.5 353,-248.5 172,-248.5"/>
<text text-anchor="start" x="179" y="-259.3" font-family="Times,serif" font-size="14.00" fill="#000000">domain: </text>
<text text-anchor="start" x="232" y="-259.3" font-family="Times,serif" font-size="14.00" fill="#000000">https://example.com</text>
</g>
<!-- service1&#45;&gt;service2 -->
<g id="edge1" class="edge">
<title>service1&#45;&gt;service2</title>
<path fill="none" stroke="#000000" d="M481.703,-583.0263C465.733,-577.2163 447.1778,-568.6919 433,-557 373.8989,-508.2613 326.6275,-434.0522 296.8948,-379.227"/>
<polygon fill="#000000" stroke="#000000" points="299.8989,-377.4226 292.0932,-370.2586 293.7277,-380.7266 299.8989,-377.4226"/>
</g>
<!-- service3 -->
<g id="node7" class="node">
<title>service3</title>
<polygon fill="none" stroke="#000000" points="527,-478 527,-499 608,-499 608,-478 527,-478"/>
<text text-anchor="start" x="544.5" y="-484.8" font-family="Times,serif" font-size="14.00" fill="#000000">service3</text>
<polygon fill="none" stroke="#000000" points="527,-411 527,-478 608,-478 608,-411 527,-411"/>
<polygon fill="#c4c4c4" stroke="transparent" points="532,-454 532,-473 603,-473 603,-454 532,-454"/>
<text text-anchor="start" x="534" y="-459.8" font-family="Times,serif" font-size="14.00" fill="#000000">hosts:</text>
<text text-anchor="start" x="534" y="-440.8" font-family="Times,serif" font-size="14.00" fill="#000000">&#45; 172.16.1.4</text>
<text text-anchor="start" x="534" y="-421.8" font-family="Times,serif" font-size="14.00" fill="#000000">&#45; 172.16.1.5</text>
</g>
<!-- service1&#45;&gt;service3 -->
<g id="edge2" class="edge">
<title>service1&#45;&gt;service3</title>
<path fill="none" stroke="#000000" d="M528.4187,-574.8369C531.8513,-569.2807 535.3555,-563.0385 538,-557 544.0606,-543.1611 549.2156,-527.7133 553.4228,-513.1102"/>
<polygon fill="#000000" stroke="#000000" points="556.881,-513.7373 556.1836,-503.1654 550.1361,-511.8647 556.881,-513.7373"/>
</g>
<!-- mysql_new_cluster -->
<g id="node5" class="node">
<title>mysql_new_cluster</title>
<polygon fill="#6495ed" stroke="transparent" points="150,-130 24,-130 24,-43 150,-43 150,-130"/>
<polygon fill="none" stroke="#000000" points="32,-104.5 32,-125.5 142,-125.5 142,-104.5 32,-104.5"/>
<text text-anchor="start" x="36.5" y="-111.3" font-family="Times,serif" font-size="14.00" fill="#000000">mysql&#45;new&#45;cluster</text>
<polygon fill="none" stroke="#000000" points="32,-75.5 32,-104.5 142,-104.5 142,-75.5 32,-75.5"/>
<text text-anchor="start" x="39" y="-86.3" font-family="Times,serif" font-size="14.00" fill="#000000">version: </text>
<text text-anchor="start" x="104" y="-86.3" font-family="Times,serif" font-size="14.00" fill="#000000">5.7</text>
<polygon fill="none" stroke="#000000" points="32,-46.5 32,-75.5 142,-75.5 142,-46.5 32,-46.5"/>
<text text-anchor="start" x="39" y="-57.3" font-family="Times,serif" font-size="14.00" fill="#000000">owner: </text>
<text text-anchor="start" x="84" y="-57.3" font-family="Times,serif" font-size="14.00" fill="#000000">dba team</text>
</g>
<!-- service2&#45;&gt;mysql_new_cluster -->
<g id="edge4" class="edge">
<title>service2&#45;&gt;mysql_new_cluster</title>
<path fill="none" stroke="#ff0000" d="M210.8905,-244.8279C194.2422,-224.2552 175.7418,-201.2251 159,-180 148.4926,-166.6788 137.2489,-152.1919 126.8447,-138.6875"/>
<polygon fill="#ff0000" stroke="#ff0000" points="129.3605,-136.2175 120.4893,-130.4252 123.8121,-140.4855 129.3605,-136.2175"/>
</g>
<!-- redis -->
<g id="node6" class="node">
<title>redis</title>
<polygon fill="none" stroke="#000000" points="176,-123.5 176,-144.5 252,-144.5 252,-123.5 176,-123.5"/>
<text text-anchor="start" x="200.5" y="-130.3" font-family="Times,serif" font-size="14.00" fill="#000000">redis</text>
<polygon fill="none" stroke="#000000" points="176,-94.5 176,-123.5 252,-123.5 252,-94.5 176,-94.5"/>
<text text-anchor="start" x="183" y="-105.3" font-family="Times,serif" font-size="14.00" fill="#000000">version: </text>
<text text-anchor="start" x="237" y="-105.3" font-family="Times,serif" font-size="14.00" fill="#000000">4</text>
<polygon fill="none" stroke="#000000" points="176,-27.5 176,-94.5 252,-94.5 252,-27.5 176,-27.5"/>
<polygon fill="#c4c4c4" stroke="transparent" points="181,-70.5 181,-89.5 247,-89.5 247,-70.5 181,-70.5"/>
<text text-anchor="start" x="183" y="-76.3" font-family="Times,serif" font-size="14.00" fill="#000000">buckets:</text>
<text text-anchor="start" x="183" y="-57.3" font-family="Times,serif" font-size="14.00" fill="#000000">&#45; example1</text>
<text text-anchor="start" x="183" y="-38.3" font-family="Times,serif" font-size="14.00" fill="#000000">&#45; example2</text>
</g>
<!-- service2&#45;&gt;redis -->
<g id="edge6" class="edge">
<title>service2&#45;&gt;redis</title>
<path fill="none" stroke="#000000" d="M248.3735,-244.7614C242.5725,-218.0526 235.7703,-186.734 229.7548,-159.0375"/>
<polygon fill="#000000" stroke="#000000" points="233.1202,-158.042 227.5774,-149.0127 226.2797,-159.5277 233.1202,-158.042"/>
</g>
<!-- builder -->
<g id="node3" class="node">
<title>builder</title>
<polygon fill="none" stroke="#000000" points="359,-582 359,-603 404,-603 404,-582 359,-582"/>
<text text-anchor="start" x="362" y="-588.8" font-family="Times,serif" font-size="14.00" fill="#000000">builder</text>
</g>
<!-- builder&#45;&gt;service2 -->
<g id="edge8" class="edge">
<title>builder&#45;&gt;service2</title>
<path fill="none" stroke="#000000" d="M355.7941,-574.7391C349.9633,-569.5453 344.2348,-563.5116 340,-557 304.9587,-503.1192 284.8165,-432.4954 273.8129,-380.1434"/>
<polygon fill="#000000" stroke="#000000" points="277.2248,-379.3576 271.7977,-370.2583 270.3659,-380.756 277.2248,-379.3576"/>
</g>
<!-- builder&#45;&gt;service3 -->
<g id="edge9" class="edge">
<title>builder&#45;&gt;service3</title>
<path fill="none" stroke="#000000" d="M406.1563,-574.9005C422.7019,-563.8195 445.245,-550.2321 467,-542 484.7724,-535.2749 492.9292,-544.1398 509,-534 518.3647,-528.0914 526.7163,-520.0816 533.9648,-511.4208"/>
<polygon fill="#000000" stroke="#000000" points="536.8954,-513.3555 540.3088,-503.3255 531.3857,-509.0376 536.8954,-513.3555"/>
<text text-anchor="middle" x="500.5" y="-545.8" font-family="Times,serif" font-size="14.00" fill="#000000">localhost:80</text>
</g>
<!-- mysql_old_cluster -->
<g id="node4" class="node">
<title>mysql_old_cluster</title>
<polygon fill="#6495ed" stroke="transparent" points="404,-130 278,-130 278,-43 404,-43 404,-130"/>
<polygon fill="none" stroke="#000000" points="286,-104.5 286,-125.5 396,-125.5 396,-104.5 286,-104.5"/>
<text text-anchor="start" x="292.5" y="-111.3" font-family="Times,serif" font-size="14.00" fill="#000000">mysql&#45;old&#45;cluster</text>
<polygon fill="none" stroke="#000000" points="286,-75.5 286,-104.5 396,-104.5 396,-75.5 286,-75.5"/>
<text text-anchor="start" x="293" y="-86.3" font-family="Times,serif" font-size="14.00" fill="#000000">version: </text>
<text text-anchor="start" x="358" y="-86.3" font-family="Times,serif" font-size="14.00" fill="#000000">5.6</text>
<polygon fill="none" stroke="#000000" points="286,-46.5 286,-75.5 396,-75.5 396,-46.5 286,-46.5"/>
<text text-anchor="start" x="293" y="-57.3" font-family="Times,serif" font-size="14.00" fill="#000000">owner: </text>
<text text-anchor="start" x="338" y="-57.3" font-family="Times,serif" font-size="14.00" fill="#000000">dba team</text>
</g>
<!-- service3&#45;&gt;mysql_old_cluster -->
<g id="edge5" class="edge">
<title>service3&#45;&gt;mysql_old_cluster</title>
<path fill="none" stroke="#ff0000" d="M557.4264,-406.9115C544.4084,-350.3866 516.9395,-255.7169 468,-188 452.8938,-167.0977 432.3923,-148.1861 412.2713,-132.5068"/>
<polygon fill="#ff0000" stroke="#ff0000" points="414.37,-129.7058 404.2921,-126.4367 410.1318,-135.2769 414.37,-129.7058"/>
</g>
<!-- service3&#45;&gt;redis -->
<g id="edge7" class="edge">
<title>service3&#45;&gt;redis</title>
<path fill="none" stroke="#000000" d="M523.8983,-406.921C514.66,-395.3069 505.4495,-382.5977 498,-370 453.5542,-294.8384 495.1641,-238.6001 424,-188 395.8909,-168.0135 298.4879,-197.8898 269,-180 259.631,-174.316 251.6797,-166.3854 244.9855,-157.5231"/>
<polygon fill="#000000" stroke="#000000" points="247.761,-155.3835 239.1865,-149.1601 242.0085,-159.3722 247.761,-155.3835"/>
</g>
<!-- registry -->
<g id="node8" class="node">
<title>registry</title>
<polygon fill="#87ceeb" stroke="transparent" points="500,-473 436,-473 436,-437 500,-437 500,-473"/>
<polygon fill="none" stroke="#000000" points="444,-444 444,-465 492,-465 492,-444 444,-444"/>
<text text-anchor="start" x="447" y="-450.8" font-family="Times,serif" font-size="14.00" fill="#000000">registry</text>
</g>
<!-- registry&#45;&gt;builder -->
<g id="edge3" class="edge">
<title>registry&#45;&gt;builder</title>
<path fill="none" stroke="#000000" d="M458.6482,-473.2478C450.1302,-489.4987 436.9413,-513.7648 424,-534 416.9577,-545.0115 408.6113,-556.7256 401.1543,-566.7893"/>
<polygon fill="#000000" stroke="#000000" points="398.3448,-564.7021 395.1478,-574.8031 403.9461,-568.9004 398.3448,-564.7021"/>
</g>
</g>
</svg>
