<svg width="639pt" height="658pt" viewBox="0.00 0.00 639.00 658.00" xmlns="http://www.w3.org/2000/svg" xmlns:xlink="http://www.w3.org/1999/xlink">
<g id="graph0" class="graph" transform="scale(1 1) rotate(0) translate(4 654)">
<title>%3</title>
<g><path d="M-2.0205986319809526 3.5316359005678892 L-4.907012057759048 -655.4352464604804 L635.5934995490587 -654.6933623212336 L633.2677044407936 5.094210395082206 L-5.070316828131674 2.779550933484244" style="stroke: none; stroke-width: 0; fill: #ffffff;"></path><path d="M-4.608459310982801 3.3774585354428295 C-7.52776563646778 -220.78163103014634, -10.135634753826228 -441.98454983800997, -2.4460089756970316 -655.9869225643946 M-4.804322743944022 3.5856327255737535 C2.261183438933647 -191.97595236613594, 1.8707157285781157 -389.59115774362266, -3.638977352749165 -654.4858525291347 M-5.338376296724437 -655.1019355522627 C164.91754305934168 -655.7918378603601, 333.21419168488706 -656.5767136341872, 633.39295135333 -653.3615187703346 M-4.83330203473955 -653.4040371698431 C136.36290196111753 -653.9179566027356, 278.41621503799183 -654.668103213351, 634.14788423325 -654.2155001314364 M634.8433931799962 -655.2146771814407 C637.7528026655083 -412.6683867810524, 638.5954650054309 -166.56971206513504, 636.8075262527353 3.5661107152830374 M634.2964075478214 -653.1420880986069 C640.1095729780106 -507.72690509160526, 639.6168262994008 -359.48546623354065, 634.8883337453752 3.458295020202711 M635.4334604838001 4.966772930780596 C394.00585752553326 8.70865427942056, 151.41095210159713 7.952901068787426, -2.488413752767995 4.175983166281677 M635.7152588784488 4.198966151634034 C452.26105635234023 6.695169057682774, 270.4657125896153 7.976059659799583, -4.13053412629267 4.754135914575675 M-4 4 C-4 4, -4 4, -4 4 M-4 4 C-4 4, -4 4, -4 4" style="stroke: transparent; stroke-width: 1; fill: none;"></path></g>
<g id="clust1" class="cluster">
<title>cluster_AWS</title>
<g><path d="M9.194038016982134 -6.8699887482215125 L9.19440926663962 -643.8217019750002 L418.5919594224162 -642.286598080508 L420.5218414835341 -6.650210330850906 L7.227093881284477 -8.718210723276444" style="stroke: none; stroke-width: 0; fill: none;"></path><path d="M7.852365919455526 -9.528285021230904 C2.58789063223991 -249.8592581735756, 3.56789585485126 -497.08494499928054, 8.860755563175829 -642.6507458843663 M8.310908006709752 -7.946450878434313 C7.156189347055886 -218.13654233644917, 8.71664801776786 -430.08630480463336, 8.473462367636523 -642.0568068664637 M6.621430066616642 -643.0680624729318 C163.51804149717788 -644.1245936389623, 321.4168594446512 -643.877942748725, 419.649379556978 -640.2422189232112 M7.344938248263887 -642.1625375471247 C120.49150710554967 -640.2176372991083, 234.3996562753319 -640.87213526853, 419.84089887463404 -642.4842869346767 M420.1700813259563 -643.0851489839564 C424.2258455392077 -391.5772658936378, 425.698134052159 -137.05717951681504, 418.60768686151215 -9.190750667411756 M419.79547042483 -642.2416969490836 C415.96809923501934 -459.473740753842, 415.43251098592657 -278.997954704947, 420.6306261277009 -8.540699765114407 M419.3100145273164 -6.491485934218583 C280.29642915593473 -4.383165743480157, 139.70745342164153 -2.7220330235585104, 8.523199937366542 -7.386402192630767 M419.23417236887025 -8.83873991000383 C260.59279951675916 -4.824333145706062, 102.55500677777438 -4.815454202302272, 7.592724095845593 -7.661070239895286 M8 -8 C8 -8, 8 -8, 8 -8 M8 -8 C8 -8, 8 -8, 8 -8" style="stroke: #000000; stroke-width: 1; fill: none;"></path></g>
<text text-anchor="middle" x="214" y="-626.8" font-family="Times,serif" font-size="14.00" fill="#000000">AWS</text>
</g>
<g id="clust2" class="cluster">
<title>cluster_db</title>
<g><path d="M15.662369306888596 -16.624072225264698 L14.62626938987263 -180.89579476660188 L411.6128206430568 -178.2005449184695 L411.8917688969579 -14.290886209618188 L17.834276857001093 -14.82401713119482" style="stroke: none; stroke-width: 0; fill: none;"></path><path d="M15.781466899619302 -14.987078537961958 C18.187158774382524 -58.619446668236314, 14.519997288404962 -100.81404365137504, 16.006384579466143 -178.42297528471335 M16.323302915217234 -16.509856969468146 C15.564576224377477 -70.43941129594197, 16.923078086315762 -126.94863260425032, 16.809895126343324 -179.23383830197025 M15.428614896478011 -179.0423714595578 C173.6369921021802 -181.47313716019823, 327.85608058725603 -179.17249078812947, 413.6240202980498 -181.33750796783974 M15.749207779100328 -180.44659224048473 C156.9857660621719 -179.16097946723278, 296.2226034063171 -178.9737279365345, 411.4981269159844 -179.78878778155774 M413.7786502384062 -180.822713668027 C411.91939368536873 -139.87273894851958, 414.7066370148819 -102.53858374200284, 411.3722739208045 -14.28973961102395 M411.35570609071317 -180.73397160118998 C412.8829784955294 -135.00132235104104, 412.18221353510694 -90.18046438142397, 412.9379275437423 -16.321867175496095 M413.67715371977266 -14.295857929512465 C292.05974160548976 -18.634177257742817, 170.26711375775125 -17.96476379706189, 14.953587370372967 -14.903454112756947 M411.8444394481846 -15.175850893114122 C264.3534563631851 -16.49191176923884, 118.02814801228531 -17.39259339935262, 16.18626925941563 -16.761025724457994 M16 -16 C16 -16, 16 -16, 16 -16 M16 -16 C16 -16, 16 -16, 16 -16" style="stroke: #000000; stroke-width: 1; fill: none;"></path></g>
<text text-anchor="middle" x="214" y="-164.8" font-family="Times,serif" font-size="14.00" fill="#000000">db</text>
</g>
<g id="clust3" class="cluster">
<title>cluster_GCE</title>
<g><path d="M429.19420018324905 -399.1597254151164 L427.8278635988327 -533.9373819730438 L621.2936620157087 -535.7976791370298 L624.7296414087466 -398.90681724303863 L427.39528569957963 -398.9509432919351" style="stroke: none; stroke-width: 0; fill: none;"></path><path d="M427.34352644583794 -400.070705512044 C426.55000321810036 -426.8230451215042, 426.9595962631906 -456.5276614711904, 429.818033932586 -533.0267278049392 M427.63434469147796 -398.8053511298713 C426.90300217369145 -432.5082354366579, 427.5361966288627 -465.8653984229412, 428.2250924569017 -533.0483632725679 M429.01296111148224 -535.0519772757042 C495.64701669398096 -533.6698141412712, 564.99985179764 -532.6570514473783, 622.3958404829251 -534.3337833146151 M427.1227836320666 -533.9994455472967 C466.43425248506605 -531.3362652913218, 505.49141398937957 -531.8998195848347, 623.8945351610395 -533.7227890960105 M622.7045902566225 -532.5506237462469 C623.1817779301633 -504.57537076390435, 623.5918127639892 -471.61771837783215, 623.4931339438591 -400.71821116780745 M623.1147058448363 -534.3422526312781 C621.1793363843918 -492.0286249641928, 622.7494794321759 -451.4578612318686, 622.0556913582967 -398.3443540688673 M622.8517297381738 -399.2123383768075 C565.089181661131 -401.6851387720976, 502.9643853738127 -402.145117462171, 426.34147469613674 -399.6402448087739 M622.3203354339582 -399.8070628344336 C572.0478667515574 -400.99647321312705, 522.2992356891289 -399.93028333076154, 428.3917291301895 -398.91381171993675 M428 -399 C428 -399, 428 -399, 428 -399 M428 -399 C428 -399, 428 -399, 428 -399" style="stroke: #000000; stroke-width: 1; fill: none;"></path></g>
<text text-anchor="middle" x="525.5" y="-518.8" font-family="Times,serif" font-size="14.00" fill="#000000">GCE</text>
</g>
<!-- service1 -->
<g id="node1" class="node">
<title>service1</title>
<g><path d="M488.7588035923286 -583.9025864265212 L489.3150202678911 -603.8589181395794 L541.6982557505689 -602.0580107681536 L541.9441431399104 -581.7177027124848 L491.9284849559318 -582.2993135347107" style="stroke: none; stroke-width: 0; fill: none;"></path><path d="M491.0272473010464 -581.7729819278098 C490.16596878126944 -588.6323702342206, 488.9225797601098 -598.3113926985043, 491.1636094271397 -601.6309145846595 M490.42482198365553 -582.0682085737723 C490.1327920533533 -588.2151218334449, 490.89163724885947 -595.3349471511837, 489.8291580295844 -603.4921409118713 M489.7457374445731 -602.6485330042543 C503.495014910177 -602.8413433307376, 522.1464647661574 -603.0217184237304, 543.1815139091993 -601.8025663070425 M489.37606258622134 -603.4892739979214 C504.59079618785324 -602.7977839176785, 517.2228285030444 -602.8270575908645, 541.7218108992862 -602.8326343866597 M543.6356365822114 -601.4154538523655 C543.8854805960914 -597.5928730529461, 540.8775772797921 -590.3521363721784, 541.8987704301385 -582.3628995936758 M541.9396019849985 -603.9329556800669 C541.3745806435081 -595.0179035738772, 541.8170734576045 -587.1810387881923, 541.0032085692688 -581.8518509011533 M540.3599532759218 -580.213789461987 C532.175824003349 -582.3639295008662, 518.0081271317035 -583.2005040156765, 489.70584263221247 -580.8622995665597 M541.4619168513957 -582.6411546054397 C523.1925488703268 -582.4038247258542, 505.4594933943863 -582.3539816150852, 490.6108109905672 -582.1314225210873 M490 -582 C490 -582, 490 -582, 490 -582 M490 -582 C490 -582, 490 -582, 490 -582" style="stroke: #000000; stroke-width: 1; fill: none;"></path></g>
<text text-anchor="start" x="493" y="-588.8" font-family="Times,serif" font-size="14.00" fill="#000000">service1</text>
</g>
<!-- service2 -->
<g id="node2" class="node">
<title>service2</title>
<g><path d="M171.5250710558848 -344.40383645690855 L171.57522941274294 -364.4140538434198 L353.2689472146346 -363.7904363984772 L353.3554715712027 -344.87918753163694 L173.6124954638669 -344.05403847245435" style="stroke: none; stroke-width: 0; fill: none;"></path><path d="M170.71028253953853 -344.81449815067367 C170.58552769941898 -351.1162999860181, 170.17297606203977 -359.3661690293909, 170.8627550946173 -365.55433564843435 M172.92620322704028 -344.42461003218506 C172.86124608092132 -351.76732315050714, 171.26206317868713 -359.6141333209495, 172.27991271038522 -366.1463586981743 M173.07434825021775 -366.6616753538418 C223.65954279568732 -368.1137983565478, 275.4306789564145 -367.6274392078776, 354.1541321025812 -364.27154293135123 M172.69980219338743 -364.8848645457753 C221.15329587343894 -363.74578220987866, 267.8129109047017 -363.9986033923947, 353.08606954861125 -366.4933998589734 M354.36235776098596 -367.462809996529 C352.8950399086085 -360.17199915877603, 351.57892917113725 -352.94189554376186, 354.82727075383013 -345.6131956168484 M352.98735473213634 -365.9923621060725 C352.8130875807577 -358.1488611082768, 352.0194942576152 -351.4591558514675, 352.0597456336828 -345.1597565572015 M351.4046674823678 -346.0645611936506 C309.5444325585542 -346.385779585861, 263.21234699465504 -343.05152570022966, 171.64891887372949 -343.8097437623851 M352.33357729435363 -344.59728151555953 C295.19510625871817 -344.74571530914545, 235.91091810738723 -344.27102809129605, 172.09236018663555 -344.8565972538432 M172 -344.5 C172 -344.5, 172 -344.5, 172 -344.5 M172 -344.5 C172 -344.5, 172 -344.5, 172 -344.5" style="stroke: #000000; stroke-width: 1; fill: none;"></path></g>
<text text-anchor="start" x="239.5" y="-351.3" font-family="Times,serif" font-size="14.00" fill="#000000">service2</text>
<g><path d="M171.01763826525917 -277.295823132238 L173.00195982320105 -345.91835002594775 L352.0888808381976 -343.1774345856602 L352.2666376829443 -275.70657135648287 L172.52694178080233 -276.2290856798035" style="stroke: none; stroke-width: 0; fill: none;"></path><path d="M170.17216997868596 -275.594874622376 C173.0274708667033 -295.21920809033213, 173.91032613179098 -312.7450709784184, 172.77096708811084 -346.19989210230693 M171.99870492766416 -278.43843521321594 C172.1196406030474 -296.2951478132698, 171.90709085857364 -313.95343404435306, 171.46069548422875 -344.7245013768375 M171.82804080597103 -343.3451434435364 C211.85675120821685 -342.75364393733344, 255.49510409681184 -342.07729343222326, 352.6360947761102 -345.21345063612745 M171.0439911403464 -344.3893959961457 C213.1251459599253 -344.1496736139469, 251.74150045743346 -344.68643755581235, 352.13355565340794 -345.2851547754323 M352.9704093408314 -342.8842232720434 C351.16869946442097 -328.69751047392924, 354.69382017696194 -313.4298007096043, 352.3060586465614 -276.72308407775313 M352.51253621316135 -345.06374856627093 C353.3395870428726 -327.7711126992155, 352.20660217299127 -311.5187598704058, 352.9591553882861 -277.9396300177148 M354.85168225642946 -279.41790117968077 C313.73575396691405 -279.68304378376956, 271.6856129824888 -279.21134898854973, 170.43793407113944 -279.14196142716094 M353.8516348280957 -278.3708570539292 C310.90660935658053 -278.81677986233785, 268.57052433299526 -279.153049963448, 172.05911692015826 -276.76725566587254 M172 -277.5 C172 -277.5, 172 -277.5, 172 -277.5 M172 -277.5 C172 -277.5, 172 -277.5, 172 -277.5" style="stroke: #000000; stroke-width: 1; fill: none;"></path></g>
<g><path d="M177.45013380837435 -320.9156931392572 L178.97339679283255 -339.45507712329606 L349.65585354964134 -337.8254353996189 L348.2510197512248 -318.8152358216488 L178.38433248429837 -321.5869283505883" style="stroke: none; stroke-width: 0; fill: #c4c4c4;"></path><path d="M177.73114320106933 -322.31954199618366 C178.14605755284592 -324.2806880762893, 176.3803393105265 -330.87665455456226, 178.04460745915034 -338.63278519647815 M176.45083530091372 -321.17958831415564 C177.73359531735395 -324.738966766779, 177.461368956246 -329.96462950936177, 176.5344170642945 -340.2310020329872 M176.48582212440743 -338.5182723409699 C237.74707232743177 -343.03262593522703, 299.413910913929 -340.713766889125, 348.0754362435689 -337.59430890627493 M177.25243198145574 -338.7106343983057 C237.0298059104221 -337.8801168790151, 297.84430426586846 -337.4669034356136, 347.69581395002234 -338.8739735624988 M348.2930092861491 -340.5209596049954 C346.58169504718745 -335.8623313203463, 349.59146200020575 -328.94853826520676, 348.3150652694656 -321.84331346238054 M348.28224825831694 -339.945972248545 C347.13983234435165 -332.81561723205186, 347.66725520403025 -326.06987268570657, 348.64114125815377 -319.71664255480016 M347.4623071262908 -318.7250838982256 C288.7528837121435 -319.2580635450205, 230.57940754618718 -321.4280523470146, 177.24670357297893 -318.65248288749916 M348.226085551375 -319.8350029019352 C307.35138152464265 -319.4092012197601, 268.7275017018345 -319.9113186212586, 177.1226132568622 -319.93978137443236 M177 -320.5 C177 -320.5, 177 -320.5, 177 -320.5 M177 -320.5 C177 -320.5, 177 -320.5, 177 -320.5" style="stroke: transparent; stroke-width: 1; fill: none;"></path></g>
<text text-anchor="start" x="179" y="-326.3" font-family="Times,serif" font-size="14.00" fill="#000000">hosts:</text>
<text text-anchor="start" x="179" y="-307.3" font-family="Times,serif" font-size="14.00" fill="#000000">- 172.16.1.4</text>
<text text-anchor="start" x="179" y="-288.3" font-family="Times,serif" font-size="14.00" fill="#000000">- 172.16.1.5</text>
<g><path d="M173.81769049946115 -246.74058395304297 L170.0130262451285 -278.52739057235584 L353.18245683103373 -279.42526641236094 L353.7354322084295 -250.07990661033796 L170.6834667293455 -249.51414773189" style="stroke: none; stroke-width: 0; fill: none;"></path><path d="M171.472951386931 -249.8094855040801 C173.96569145804241 -254.98919253017706, 173.91931243780365 -263.69443460616594, 170.7069986965548 -279.18877780068624 M172.45755956091983 -247.95033253126277 C172.81757342855389 -258.82332917261374, 171.11856072223927 -267.28893622694676, 172.8029591101961 -278.4904213917569 M172.65365041642897 -276.7566893212969 C230.92745237261823 -276.07462667210257, 292.757533357865 -277.05285251638514, 353.4180924214277 -276.0322194782694 M172.8488037831264 -277.5548939338913 C226.96873352807324 -278.9325419062017, 282.9350380965172 -278.5697969182671, 352.4522091986655 -277.78469534119023 M353.1340700314618 -279.4695733947241 C351.90924164824537 -268.4171398271625, 354.52515407401546 -256.89274599587645, 354.2371473805019 -249.85994609321838 M352.1881675178476 -278.45266727008266 C353.7004655676618 -269.3157094090101, 353.48867750950416 -259.40688237563177, 353.75045320158057 -248.89124624781954 M352.1055885406256 -248.7980164365826 C301.4781187080144 -248.28331723387026, 251.8707388418373 -250.5033869565637, 170.6430021016722 -248.65144908999721 M353.15168719244343 -247.9166653304713 C301.7896494625211 -248.42214843125964, 250.90511262027556 -247.20367761897336, 171.97874017241864 -248.39748688591797 M172 -248.5 C172 -248.5, 172 -248.5, 172 -248.5 M172 -248.5 C172 -248.5, 172 -248.5, 172 -248.5" style="stroke: #000000; stroke-width: 1; fill: none;"></path></g>
<text text-anchor="start" x="179" y="-259.3" font-family="Times,serif" font-size="14.00" fill="#000000">domain: </text>
<text text-anchor="start" x="232" y="-259.3" font-family="Times,serif" font-size="14.00" fill="#000000">https://example.com</text>
</g>
<!-- service1&#45;&gt;service2 -->
<g id="edge1" class="edge">
<title>service1-&gt;service2</title>
<g><path d="M481.703,-583.0263C465.733,-577.2163 447.1778,-568.6919 433,-557 373.8989,-508.2613 326.6275,-434.0522 296.8948,-379.227" style="stroke: none; stroke-width: 0; fill: none;"></path><path d="M481.61502595280416 -581.420376352944 M481.61502595280416 -581.420376352944 C465.8756182694612 -576.5275439458484, 446.50595381922653 -567.1063987530579, 433.97657353077153 -558.8786376127748 M482.7461892851216 -582.7068960040666 C468.01477651778066 -577.0567921721959, 446.43173411238547 -569.248481797071, 435.23335986858933 -555.6210506562661 M435.23335986858933 -555.6210506562661 C374.78020249998264 -506.80932856537777, 326.8709205619964 -432.97918211999007, 296.3367590942924 -378.5897979325956 M434.9512134869755 -556.4936517453767 C371.8199060016985 -509.99320418102906, 326.062708630244 -432.0598017177965, 294.58591285945636 -377.96527069657503" style="stroke: #000000; stroke-width: 1; fill: none;"></path></g>
<g><path d="M299.4411315143824 -377.55429958603014 L292.63153900268367 -369.5008001853575 L295.21883407246014 -379.36934371825714 L299.8115155150278 -378.0645611081997" style="stroke: none; stroke-width: 0; fill: #000000;"></path><path d="M299.9156983918806 -377.49190897967884 C296.4642159511588 -375.9318916353246, 293.96858117586316 -372.4536378943091, 291.3917152002323 -370.34097125915474 M299.8436248292404 -377.3740103164842 C298.55315441284495 -376.16437924999707, 297.1657390865177 -374.13162620175893, 292.1175049561381 -370.05380341568457 M292.6422267109 -370.2805073698685 C292.6199408505781 -373.369831205107, 293.6778848319069 -378.41144939558933, 294.5985839992693 -380.6604266184712 M292.38774067019307 -370.0769979105892 C292.8767573366407 -374.18690577187306, 293.6950369617278 -378.1764785803687, 293.8180442571331 -380.82455270180714 M293.8507486867794 -380.4870028599345 C295.7792001742928 -379.3688520055312, 295.90185504701066 -378.8609951726959, 300.4272462524308 -377.91139835825743 M293.65480305141733 -380.38971959084535 C294.7847353747734 -379.94682498027055, 296.2481775079053 -379.40464065127935, 299.5781536791727 -377.16645017030766 M299.8989 -377.4226 C299.8989 -377.4226, 299.8989 -377.4226, 299.8989 -377.4226 M299.8989 -377.4226 C299.8989 -377.4226, 299.8989 -377.4226, 299.8989 -377.4226" style="stroke: #000000; stroke-width: 1; fill: none;"></path></g>
</g>
<!-- service3 -->
<g id="node7" class="node">
<title>service3</title>
<g><path d="M528.5295024774022 -479.919632936812 L526.9976137189619 -500.08860480663003 L606.6462409138952 -499.75406915562723 L608.9155787759934 -479.96123172460045 L528.5297042597452 -478.61977732967074" style="stroke: none; stroke-width: 0; fill: none;"></path><path d="M525.0118073175892 -477.6436733645425 C527.3144477042953 -486.8657614113417, 528.2933296587476 -494.22748842315843, 527.6274297213737 -500.2537533743456 M527.8098928506444 -478.6736045724612 C526.7404212238044 -483.7500921664591, 527.3016884983778 -491.3860147431208, 527.3315421064889 -498.4362961746429 M527.50377008732 -499.361942253922 C555.6395159214907 -500.0248600643116, 584.73149031336 -497.674238073044, 609.3949058890277 -499.77353886281765 M527.0040889142546 -498.95288727219594 C546.5762817086078 -498.2063946775303, 567.1941529974101 -499.0873098071937, 607.0474037830006 -499.2212035043288 M608.392431514107 -498.5657607157059 C607.6931376999212 -491.0528084433059, 608.9838309557986 -484.0888300723197, 607.099568245055 -479.38237086621814 M607.4778757008663 -499.90934566214446 C607.9959640518958 -491.32117228004955, 608.796895200181 -482.5927162150424, 607.4671120684935 -478.54618881296983 M607.6784696739694 -478.0785973153511 C579.0664815985598 -479.54224917232864, 551.7393769515955 -477.62456875368343, 527.4862992722151 -478.91331220737464 M607.3997701734758 -478.06084746540495 C586.0493410654464 -477.7937953869246, 563.5559879387445 -478.55583307763624, 527.1233806287428 -478.38704859750266 M527 -478 C527 -478, 527 -478, 527 -478 M527 -478 C527 -478, 527 -478, 527 -478" style="stroke: #000000; stroke-width: 1; fill: none;"></path></g>
<text text-anchor="start" x="544.5" y="-484.8" font-family="Times,serif" font-size="14.00" fill="#000000">service3</text>
<g><path d="M525.7456596842085 -412.9931242710644 L525.9469895722807 -477.771167899839 L607.5960816519237 -479.7545714840057 L607.5404720511581 -410.756166512665 L528.864066172866 -411.40166467686345" style="stroke: none; stroke-width: 0; fill: none;"></path><path d="M528.7629702780175 -412.85109022383807 C526.7900164828897 -436.5143680555288, 526.8345524325326 -459.6168776785239, 528.292354420729 -478.1837678130982 M527.5516872743859 -410.6764065244569 C525.7088254106113 -434.85096424835467, 526.2195474138041 -459.55934425531893, 526.3987214978466 -478.4965135938839 M525.447977389916 -477.91724503405345 C556.0476698554163 -478.9232087154076, 582.9054356665047 -476.2807418983795, 608.184063456349 -478.70902439390613 M527.1361848632766 -477.799837366651 C552.5278411576296 -479.50002642300876, 577.3011594083566 -477.86562239440207, 607.4198180751589 -478.9961722338015 M608.8533316471376 -477.8914074069168 C606.8399426282621 -458.97524394012095, 608.7306366136837 -438.87236077539006, 608.7775192381175 -410.2148160442488 M608.0441435553331 -477.10580421503533 C607.3082926316804 -460.4416522631978, 607.0616686383355 -441.8411141546798, 608.9083902841446 -411.39888423023586 M608.2391134262003 -412.2842300470443 C586.9768144673753 -411.10442058446677, 569.4819204990478 -410.2863994332256, 528.7200956237878 -411.4541615879946 M607.4950945643415 -411.2206564307152 C581.9136233953074 -410.9177558835932, 554.5089474059247 -410.0609811040797, 526.0397540826381 -411.3542662527705 M527 -411 C527 -411, 527 -411, 527 -411 M527 -411 C527 -411, 527 -411, 527 -411" style="stroke: #000000; stroke-width: 1; fill: none;"></path></g>
<g><path d="M530.15660280994 -454.57707580777003 L532.5575551739468 -472.85799672890323 L603.7881434425402 -471.28116663284055 L603.4714282794913 -453.7819533387738 L531.499507092234 -452.08054439563693" style="stroke: none; stroke-width: 0; fill: #c4c4c4;"></path><path d="M530.3963829351555 -455.483719198305 C531.3859634306026 -459.3612835565863, 533.8101931977758 -467.23179165387853, 531.6367489932533 -472.96014527731404 M532.1098343679841 -454.63215524469973 C532.6075438348465 -459.8025265030036, 532.3860767310033 -465.3599375067584, 532.9497833703005 -472.24696172754585 M532.97403230168 -473.48428235140074 C561.1077390736539 -474.4991775584867, 588.2233861289309 -471.56927318240633, 603.5089487846271 -473.9189095349104 M531.1186693707291 -472.95814544794274 C549.368671643791 -472.59167574714354, 567.0735057604353 -472.4377817627289, 602.2129724907799 -473.09680940174985 M601.691324648115 -474.7461229229235 C603.7227575318434 -467.4873009143724, 602.9049889122698 -465.05561408322916, 604.7718363024933 -454.56710219311395 M602.389873899129 -472.18669628736166 C603.8315042658143 -466.53816561718224, 602.9974873560122 -459.21547828711675, 603.6589384601419 -453.22864149749006 M602.1351662286876 -453.8135082281138 C581.4336280401244 -455.9243460898687, 560.3409390843929 -454.804964364861, 533.8250931152013 -454.05621489243936 M602.7113115017224 -454.49803299968477 C575.3009213040829 -454.0957570322916, 547.232274802413 -453.4450324912066, 531.0178214478528 -453.4231466604379 M532 -454 C532 -454, 532 -454, 532 -454 M532 -454 C532 -454, 532 -454, 532 -454" style="stroke: transparent; stroke-width: 1; fill: none;"></path></g>
<text text-anchor="start" x="534" y="-459.8" font-family="Times,serif" font-size="14.00" fill="#000000">hosts:</text>
<text text-anchor="start" x="534" y="-440.8" font-family="Times,serif" font-size="14.00" fill="#000000">- 172.16.1.4</text>
<text text-anchor="start" x="534" y="-421.8" font-family="Times,serif" font-size="14.00" fill="#000000">- 172.16.1.5</text>
</g>
<!-- service1&#45;&gt;service3 -->
<g id="edge2" class="edge">
<title>service1-&gt;service3</title>
<g><path d="M528.4187,-574.8369C531.8513,-569.2807 535.3555,-563.0385 538,-557 544.0606,-543.1611 549.2156,-527.7133 553.4228,-513.1102" style="stroke: none; stroke-width: 0; fill: none;"></path><path d="M529.3153462316011 -575.2628149877917 M529.3153462316011 -575.2628149877917 C532.3341128534539 -570.4216882725435, 536.8329534526707 -561.269841314929, 539.7425838454617 -556.9752406875024 M529.6261185245904 -573.5392362728139 C531.9075797377284 -569.0688305272301, 537.8340774733718 -565.3528860750231, 539.4890436492136 -554.7038151959761 M539.4890436492136 -554.7038151959761 C545.6951002985244 -542.660365317068, 548.6347627842673 -529.2280219191917, 553.6107689607304 -511.27506003816035 M538.639011819341 -554.7481595396976 C542.8588471120568 -544.8187381224557, 546.9741842562623 -529.0447049742507, 554.1355175126313 -511.258190090019" style="stroke: #000000; stroke-width: 1; fill: none;"></path></g>
<g><path d="M555.1376710235916 -514.6250342108824 L557.4239171512078 -502.0684645816059 L549.8734750351529 -513.2849992756352 L556.3103680513663 -515.038566992733" style="stroke: none; stroke-width: 0; fill: #000000;"></path><path d="M557.0512007221895 -513.1800802724541 C556.2859318309721 -511.10799657399446, 555.555275789992 -509.09297543399657, 556.903737097488 -502.15354991395117 M556.9103573233797 -513.7909703460168 C557.1970297154796 -510.2931068152204, 556.8132306296642 -506.6504921461622, 556.2706431301492 -503.14146170449123 M555.8551940256336 -503.71516968115526 C554.5974486912386 -506.5800279611466, 552.3989985038847 -508.2263079250506, 550.0151321578292 -511.73432450982693 M555.8164879547317 -502.7127140746994 C554.334439704596 -505.64008031680714, 552.696436411767 -508.13344493886984, 549.9660289717107 -512.3778568736209 M550.2956514493302 -511.9807998208798 C552.081850954366 -512.4080617514715, 552.7589424241683 -512.1885628727306, 557.4480929337808 -513.2204272542253 M550.3973517337566 -512.1003956684245 C552.6388634581449 -512.459833140115, 555.3218420480522 -513.0231408092948, 556.6203085011456 -513.6736325033422 M556.881 -513.7373 C556.881 -513.7373, 556.881 -513.7373, 556.881 -513.7373 M556.881 -513.7373 C556.881 -513.7373, 556.881 -513.7373, 556.881 -513.7373" style="stroke: #000000; stroke-width: 1; fill: none;"></path></g>
</g>
<!-- mysql_new_cluster -->
<g id="node5" class="node">
<title>mysql_new_cluster</title>
<g><path d="M151.79931871475 -131.49300679128993 L23.823783710381942 -128.28139032196606 L25.813356126274087 -42.852107732522875 L149.73348144354864 -44.58894348557439 L151.08786663622786 -131.33115102886856" style="stroke: none; stroke-width: 0; fill: #6495ed;"></path><path d="M148.28039743849396 -130.65546066204124 C108.54849093464813 -130.89207301321457, 67.36003385686486 -129.36106463650998, 23.481824500802006 -131.02185939243435 M149.12645490494475 -129.2990053264072 C112.99145524747249 -131.6091766079019, 73.65364596715048 -131.94084887965812, 23.886479669089617 -130.27626008655093 M25.042666172958114 -129.39813793275775 C22.333663342547126 -103.54928783066826, 26.035344103789335 -79.39449641400698, 25.456114845510065 -41.4510110682585 M24.215112276766625 -129.56674870458073 C24.19774221978779 -103.96274028177268, 23.367780434176314 -78.16761836073383, 23.35210113965037 -43.16289017737081 M23.054158575456142 -41.51604513464326 C60.91916824408922 -41.09920232501157, 96.97101159055664 -43.65170526302087, 151.5653288553254 -43.769300989614784 M24.689266798693566 -42.867141121936356 C60.012142351564066 -44.711568006413316, 96.60420820751155 -44.23144886398638, 149.883404057644 -42.68138131520643 M150.12733233941137 -43.42126904051058 C147.8908276849851 -73.93972747045909, 147.44472839499673 -108.56375384055222, 150.09395404398506 -128.2743272528286 M149.895683856803 -42.47867714319417 C150.38314439497472 -75.308008912163, 151.32543709011568 -106.20237748398635, 150.27000085279792 -130.2383846854511 M150 -130 C150 -130, 150 -130, 150 -130 M150 -130 C150 -130, 150 -130, 150 -130" style="stroke: transparent; stroke-width: 1; fill: none;"></path></g>
<g><path d="M31.850337089246146 -103.9475331456302 L33.67943012397028 -126.05879398414409 L142.9197764650068 -126.89552271308943 L142.93483789200002 -106.35468646098717 L31.444730250038447 -106.3419197217485" style="stroke: none; stroke-width: 0; fill: none;"></path><path d="M32.4895553070515 -103.7248653653453 C32.42910211220527 -112.32385585124277, 31.953206710554774 -120.65726315240295, 30.035664775448954 -125.54747083083237 M32.53820779884587 -104.18533715928342 C32.46494664328674 -111.38482075181754, 33.06613307676764 -117.45911389978522, 31.815457781473874 -125.8172897208652 M31.1932499286616 -125.05486786397172 C68.87397397055874 -125.19958906668967, 109.66421843871811 -124.53245639832505, 140.69346190742408 -127.33083029899794 M32.469175946400775 -126.48156734454683 C67.23369983939902 -125.46457178459, 100.86367311936921 -126.38172282223071, 142.44027973784344 -126.05098803936092 M141.43430156403912 -124.6466238228943 C141.34450095654603 -122.99931801365997, 142.5808149163723 -117.0971548512801, 141.9248326514059 -103.52445950429707 M141.66686857334676 -125.37873717904434 C141.71454323501058 -119.36167888693303, 142.49150118031744 -112.35977562521188, 141.33046689892723 -104.95503444248764 M141.3836973341299 -105.71023916866214 C110.98924642062049 -103.7143309036914, 84.53449065580821 -102.58258378246384, 33.92750764971751 -105.19492812508057 M141.04736874097748 -104.065292271455 C110.88915674587783 -103.97855152493842, 78.48905132173714 -104.4209865762625, 31.943433138390258 -104.08474662929373 M32 -104.5 C32 -104.5, 32 -104.5, 32 -104.5 M32 -104.5 C32 -104.5, 32 -104.5, 32 -104.5" style="stroke: #000000; stroke-width: 1; fill: none;"></path></g>
<text text-anchor="start" x="36.5" y="-111.3" font-family="Times,serif" font-size="14.00" fill="#000000">mysql-new-cluster</text>
<g><path d="M33.60185610684702 -77.23529787161765 L30.011868459566546 -102.71268134877053 L143.96287777879243 -102.71473551217497 L143.07581843997644 -73.73332558657528 L33.133953089547084 -75.01476352186273" style="stroke: none; stroke-width: 0; fill: none;"></path><path d="M33.206230723590636 -73.69864648738137 C33.83272823595172 -83.10780466353596, 31.387988180756917 -93.93125120919332, 30.97254571488407 -103.9345579317273 M32.89544839815405 -75.98842770006799 C32.386121732220126 -80.73074210247677, 31.83577203957583 -87.7502754956913, 31.444363612424926 -103.67359788830062 M30.489454249861804 -104.02572259168977 C63.58593945261633 -103.11695140736168, 94.00058047688631 -102.6616912549608, 143.30895317682658 -103.8572227231425 M31.18047255478725 -104.98852518970655 C53.9874828930525 -104.16189869095207, 76.44344828916257 -103.94111325235734, 141.09984058894864 -104.36198984812619 M143.03739128062296 -105.30620563381542 C143.5950184767242 -94.77084215441816, 140.48759307975726 -82.4742083586679, 141.30651994997106 -77.43614923693428 M141.05013629927572 -104.93352734059326 C141.58032306977336 -92.86641127446892, 142.22050671740712 -82.11133377919847, 141.32972554456185 -75.23307484517619 M141.35876777095925 -76.88143953051544 C98.66804219756042 -75.10310990802765, 54.67845072060283 -75.37241196061704, 30.8140782950727 -74.98193398325742 M142.42791195552863 -76.3127515297255 C112.71727599218421 -75.36434225795927, 81.99010269265092 -74.99259719803116, 32.21047345625039 -75.63554753510591 M32 -75.5 C32 -75.5, 32 -75.5, 32 -75.5 M32 -75.5 C32 -75.5, 32 -75.5, 32 -75.5" style="stroke: #000000; stroke-width: 1; fill: none;"></path></g>
<text text-anchor="start" x="39" y="-86.3" font-family="Times,serif" font-size="14.00" fill="#000000">version: </text>
<text text-anchor="start" x="104" y="-86.3" font-family="Times,serif" font-size="14.00" fill="#000000">5.7</text>
<g><path d="M30.976793672710315 -47.591873776389605 L33.16603603631038 -76.64911471532494 L141.50691824526862 -73.68820397938626 L141.6380000027246 -46.70528082179649 L32.73106179527469 -45.23392388770252" style="stroke: none; stroke-width: 0; fill: none;"></path><path d="M33.22277895665099 -48.24014257265288 C30.66442369452862 -51.771949743574424, 30.475288120077867 -59.075938835985035, 32.32374632310117 -73.90509226629153 M32.10885991442937 -46.24038511660599 C31.159114532384287 -55.15522694501503, 31.75546925293761 -62.89583905544463, 31.86704456949851 -75.56812081993803 M32.1543369165313 -75.6873147669245 C71.19829850593227 -73.84407772246351, 112.12797906328781 -75.65653376765023, 140.84011565084822 -73.73381389549996 M32.16501737118811 -76.1428235987378 C62.93191779451818 -76.79383488146895, 92.21723194841006 -75.93424529167876, 141.69009416210056 -75.1314331667217 M141.6301744097059 -74.22604948498922 C140.35471519663847 -66.88984732266807, 142.20223582745697 -59.799093843212646, 143.70449571967765 -45.22934353118587 M142.4270871771156 -75.86048685801013 C142.48237834560226 -65.24116845757153, 141.1220326259518 -54.24897854278994, 142.02701928630805 -47.23255890753234 M140.34945501534818 -46.92686564580529 C105.94136410493753 -45.49791354882425, 65.71979907831115 -46.0627036788167, 32.93931982336974 -45.06474023522295 M142.83900636213951 -46.2288557106321 C118.3815740492893 -46.04958111386915, 96.16121879864264 -46.40283920297808, 31.80314902573512 -46.32489923219612 M32 -46.5 C32 -46.5, 32 -46.5, 32 -46.5 M32 -46.5 C32 -46.5, 32 -46.5, 32 -46.5" style="stroke: #000000; stroke-width: 1; fill: none;"></path></g>
<text text-anchor="start" x="39" y="-57.3" font-family="Times,serif" font-size="14.00" fill="#000000">owner: </text>
<text text-anchor="start" x="84" y="-57.3" font-family="Times,serif" font-size="14.00" fill="#000000">dba team</text>
</g>
<!-- service2&#45;&gt;mysql_new_cluster -->
<g id="edge4" class="edge">
<title>service2-&gt;mysql_new_cluster</title>
<g><path d="M210.8905,-244.8279C194.2422,-224.2552 175.7418,-201.2251 159,-180 148.4926,-166.6788 137.2489,-152.1919 126.8447,-138.6875" style="stroke: none; stroke-width: 0; fill: none;"></path><path d="M210.26896544075558 -246.1297466625061 M210.26896544075558 -246.1297466625061 C196.22939602742784 -226.13842190170848, 177.37408228711794 -199.83458695253844, 160.16323983463334 -181.113576951616 M211.5021774319405 -247.7598163919261 C194.31529356147433 -223.17270358427749, 176.86021353952674 -199.50211757174264, 159.24754246213874 -179.1692255774156 M159.24754246213874 -179.1692255774156 C150.04407346135648 -167.9182395684533, 139.00659335701053 -150.34062445416296, 125.97035715889493 -140.57190771523048 M159.97135773999597 -178.89880322046284 C146.80402099100803 -168.76374370423852, 136.62602750587422 -153.4611092117518, 126.70968133754324 -137.0192516809374" style="stroke: #ff0000; stroke-width: 1; fill: none;"></path></g>
<g><path d="M127.38057692743078 -136.8032794791354 L119.64423682422833 -131.47816126016278 L122.7652957068768 -138.6623770419045 L128.90592144253654 -134.7617942168145" style="stroke: none; stroke-width: 0; fill: #ff0000;"></path><path d="M129.51586171303987 -135.57612165024506 C127.34935514750056 -135.83172268844308, 126.49500404295551 -132.9677413463471, 120.31389625348014 -129.4000976155465 M129.30777824316382 -136.56088503202693 C125.64074705727741 -134.40694861087562, 122.9245549265934 -131.47532099058373, 120.07485232577145 -130.2074357455693 M120.23881887449053 -129.71984817035823 C120.89280604718537 -132.53472497457398, 121.27948781065227 -135.23589502134737, 123.51066410618309 -141.37083955307992 M120.3734034154554 -130.68930539654062 C120.66261391574365 -132.8836566409183, 122.06016999901212 -134.29179749070116, 123.84537114804655 -140.80579546922914 M123.9692536003543 -140.43664332713462 C125.39238302254758 -140.23914979280377, 126.50693118585131 -139.18993677185279, 129.52965655966457 -136.70910342779362 M124.0317168773765 -140.39092790820013 C125.42908879620828 -139.11809086273828, 126.84082370310044 -138.07761166330144, 129.34928497761237 -136.0313397128609 M129.3605 -136.2175 C129.3605 -136.2175, 129.3605 -136.2175, 129.3605 -136.2175 M129.3605 -136.2175 C129.3605 -136.2175, 129.3605 -136.2175, 129.3605 -136.2175" style="stroke: #ff0000; stroke-width: 1; fill: none;"></path></g>
</g>
<!-- redis -->
<g id="node6" class="node">
<title>redis</title>
<g><path d="M176.34674319334957 -121.66822487351301 L176.22442289690684 -146.02943115405796 L251.82481665263728 -144.18024301782975 L250.77424429154152 -123.05233500801256 L176.95597985390611 -124.97004270481875" style="stroke: none; stroke-width: 0; fill: none;"></path><path d="M175.65329813116483 -125.05708245362293 C176.26191195085542 -128.6438579415471, 176.0420026220624 -134.41788454888945, 174.0574190453035 -142.6557507669184 M176.71081499478217 -123.7426313651791 C176.33792638240882 -127.97632679949238, 175.6280958782537 -133.72535610200813, 176.39491880880243 -145.31020983614647 M176.54677408786495 -144.57793569181223 C189.69959168066117 -144.07617899268794, 206.80397817682663 -143.3299014922032, 253.11215750859762 -144.89289937141947 M175.07116578046418 -144.0772507522859 C201.22448436820798 -144.32734004556264, 225.73323996585623 -144.45223037196934, 252.80489081703126 -144.76253967620826 M252.88179526053327 -144.72303493420256 C249.93771910154243 -139.17655915220877, 253.1328741454039 -132.75874732331218, 250.4943178053487 -125.18132909033588 M251.99456721085068 -144.59193212026332 C251.2957842868083 -137.5809744172875, 252.68167498915798 -131.52625994103647, 252.84909881991047 -123.1588939361955 M250.4885576108835 -123.38162982552879 C232.09906900974346 -122.2284845600049, 212.93620171255645 -122.05592293706152, 174.02507136886643 -121.50257768628963 M252.81870444348604 -123.48018575986393 C233.6209516783333 -122.44252718594717, 213.6737532691037 -123.02024557182263, 175.53179952883715 -124.35110164057404 M176 -123.5 C176 -123.5, 176 -123.5, 176 -123.5 M176 -123.5 C176 -123.5, 176 -123.5, 176 -123.5" style="stroke: #000000; stroke-width: 1; fill: none;"></path></g>
<text text-anchor="start" x="200.5" y="-130.3" font-family="Times,serif" font-size="14.00" fill="#000000">redis</text>
<g><path d="M177.0445889440878 -95.6510133595065 L177.23144780541202 -121.55124377414296 L251.51701704318617 -123.12464665310726 L253.11740648479412 -94.91798962144924 L176.5048818643232 -95.57154989595031" style="stroke: none; stroke-width: 0; fill: none;"></path><path d="M174.5888354858177 -95.13341038093273 C175.47808555419462 -104.3547910283765, 176.13309823192048 -116.3172801247419, 175.88177064656193 -125.32926492684335 M175.2257143444978 -93.65901669157569 C174.94081543545605 -104.11353649980828, 174.79818707594535 -112.60819921742215, 175.63619781420746 -123.37426552864292 M176.8951901528058 -123.64328549335931 C191.88426969123907 -122.5810457767269, 206.8305480237361 -123.2156187287137, 250.63062394898077 -122.20386528691643 M176.61406453940825 -124.48238436470328 C205.35126920222422 -124.33380198592121, 234.86527047275857 -124.4317025661702, 252.42620479906415 -123.095229120807 M253.7780863809131 -123.55878007094879 C253.45440950119695 -115.0740099616146, 252.73950581083935 -111.34766946952028, 251.1338137718004 -95.91269957716293 M251.11878383323068 -124.09963349064786 C252.11345513386937 -116.61705230172832, 251.84120814811996 -111.161884123345, 251.43803189132493 -95.3283005819333 M253.00979243363398 -92.93410853497207 C234.12246768882883 -93.79135816067371, 215.18694200225931 -95.58250423765134, 175.33789844255935 -95.12729057679026 M251.77020034127506 -93.91258522677171 C223.31796539090436 -94.10762773488699, 194.34858749323394 -93.58241355018363, 176.69907390095744 -95.09937667225992 M176 -94.5 C176 -94.5, 176 -94.5, 176 -94.5 M176 -94.5 C176 -94.5, 176 -94.5, 176 -94.5" style="stroke: #000000; stroke-width: 1; fill: none;"></path></g>
<text text-anchor="start" x="183" y="-105.3" font-family="Times,serif" font-size="14.00" fill="#000000">version: </text>
<text text-anchor="start" x="237" y="-105.3" font-family="Times,serif" font-size="14.00" fill="#000000">4</text>
<g><path d="M177.95874367923307 -28.489590943825007 L176.6498947523158 -92.76951549949183 L251.0677800234481 -94.09540977432076 L253.1214609638857 -28.58196907324686 L174.08610676326305 -28.60679768321357" style="stroke: none; stroke-width: 0; fill: none;"></path><path d="M176.32651664706324 -26.93026354373462 C176.53892626205166 -43.012345663485796, 178.16243002520343 -59.56621438431732, 174.73616051094254 -92.7004697595473 M175.74462197980847 -27.740724590418566 C175.2986035612182 -47.963439630322014, 176.4890608277789 -68.48314929388654, 175.78194465478975 -93.87821366265203 M177.82117232046483 -94.63287005421633 C200.42080849781377 -95.46874233678408, 224.78141427959903 -96.49053905727735, 253.823366669456 -95.52756031577162 M175.64564601867323 -94.62396425329571 C202.4001699440863 -94.3519037664303, 230.67475271696622 -93.8239964620118, 251.89990783570633 -94.28639235678519 M252.76361047308478 -95.90747539703607 C253.16656017724608 -76.34424226453177, 253.15912729953874 -57.54286895643639, 250.32596261188235 -27.651661539398994 M251.56248650818304 -93.72998462535934 C251.83159561442108 -69.79500097963391, 252.19942685644781 -45.55421285902756, 251.290832015553 -27.031069632626945 M250.64788670590576 -27.20764340379052 C224.2200796730408 -29.436493524549398, 196.81758526617523 -27.566522974671294, 176.84552759436616 -27.00652468013198 M251.1218515189669 -27.64267464741159 C236.80721780407657 -27.512384425994966, 219.18250512638286 -27.03761286014702, 176.37022077804727 -27.85451290502587 M176 -27.5 C176 -27.5, 176 -27.5, 176 -27.5 M176 -27.5 C176 -27.5, 176 -27.5, 176 -27.5" style="stroke: #000000; stroke-width: 1; fill: none;"></path></g>
<g><path d="M182.00996052622395 -71.45986659164414 L181.10637141202602 -87.77381364600325 L247.77777712314997 -90.2791895538166 L245.39430708970008 -71.01693819096708 L179.74841184951921 -71.28696382664305" style="stroke: none; stroke-width: 0; fill: #c4c4c4;"></path><path d="M182.21164653528734 -71.23527876733067 C179.57045488785752 -79.21193606519056, 181.35180775438084 -84.03234686715953, 179.10050291499684 -91.11820444141266 M181.92855155400738 -69.59585791112548 C180.5512231803414 -78.58323734005963, 180.0092678010132 -85.9667207229937, 181.0544564203331 -88.57983969892601 M182.64634662712342 -90.19308270393954 C204.59007741804137 -88.41383094096243, 227.33433290040563 -88.79833846216115, 245.8640144830329 -89.35074754910384 M180.91212089839968 -89.51524362908567 C200.62637636759302 -89.49706573353156, 218.9820388533681 -89.8351603402067, 247.705331292812 -89.93035006985208 M248.17721335774988 -89.48613198061128 C248.11822414561868 -82.50955319490788, 247.34178765423397 -77.15251060388063, 246.27062699383288 -72.12661331811346 M246.41586199022774 -88.55316332043883 C246.21192690841198 -84.3864532848915, 247.16051552388785 -77.68112601541274, 246.72495427581262 -70.10025488243227 M245.38751739396204 -71.27610142243196 C232.09859386966173 -71.20761688856801, 213.01979458839546 -72.75089537098026, 181.7216057299662 -72.29549326364976 M246.21846064622224 -69.80976068371784 C230.27798909914975 -70.6889005213085, 212.3111404461073 -69.92881859245676, 180.84339547659022 -71.02274901268827 M181 -70.5 C181 -70.5, 181 -70.5, 181 -70.5 M181 -70.5 C181 -70.5, 181 -70.5, 181 -70.5" style="stroke: transparent; stroke-width: 1; fill: none;"></path></g>
<text text-anchor="start" x="183" y="-76.3" font-family="Times,serif" font-size="14.00" fill="#000000">buckets:</text>
<text text-anchor="start" x="183" y="-57.3" font-family="Times,serif" font-size="14.00" fill="#000000">- example1</text>
<text text-anchor="start" x="183" y="-38.3" font-family="Times,serif" font-size="14.00" fill="#000000">- example2</text>
</g>
<!-- service2&#45;&gt;redis -->
<g id="edge6" class="edge">
<title>service2-&gt;redis</title>
<g><path d="M248.3735,-244.7614C242.5725,-218.0526 235.7703,-186.734 229.7548,-159.0375" style="stroke: none; stroke-width: 0; fill: none;"></path><path d="M248.540455410049 -245.920292580556 M248.540455410049 -245.920292580556 C241.246319144913 -218.94896672737065, 234.65991569465365 -185.7503689837979, 231.09736811922514 -157.72248077231103 M247.06740941951878 -245.75760476270997 C244.33649675834917 -219.9874771613699, 235.65080803396202 -189.02305055728203, 230.40550810378772 -161.26911509605802" style="stroke: #000000; stroke-width: 1; fill: none;"></path></g>
<g><path d="M233.06969296100436 -158.54239283569544 L228.3859720846601 -150.70593253651737 L225.71909875813512 -161.34571926326635 L234.81104059362724 -157.41074899276015" style="stroke: none; stroke-width: 0; fill: #000000;"></path><path d="M232.31513360259103 -158.2929828506165 C230.2169858393679 -153.9408440237269, 228.07359977918387 -150.7613245291937, 227.127433573617 -149.2022379294089 M233.061244886418 -157.85178323097196 C231.35073813289176 -155.70881131898958, 230.54627490743863 -153.937537897705, 227.66510610733044 -149.41672289442454 M227.26505255364683 -147.99299778545316 C227.84479190345755 -152.35194861903867, 227.5347560926909 -155.31404896398865, 227.02014668146575 -159.03150641745228 M227.1478810960934 -148.50885299233533 C227.44150579664193 -153.18310242981562, 226.63775728553838 -156.94410649044357, 226.2205398094792 -159.87526072768225 M225.94126887872935 -158.85961365904626 C227.51349206131636 -159.57754609383855, 229.2094920129654 -158.3036582584463, 233.77866453701256 -157.76290310421936 M226.14509389081525 -159.72309782238523 C227.93392501268414 -159.22830588896187, 229.20132961470878 -159.18937913968796, 233.09985512564873 -158.23294100814257 M233.1202 -158.042 C233.1202 -158.042, 233.1202 -158.042, 233.1202 -158.042 M233.1202 -158.042 C233.1202 -158.042, 233.1202 -158.042, 233.1202 -158.042" style="stroke: #000000; stroke-width: 1; fill: none;"></path></g>
</g>
<!-- builder -->
<g id="node3" class="node">
<title>builder</title>
<g><path d="M357.11067231314183 -582.1446780212301 L359.48993632002373 -604.3413964440078 L404.49332435975816 -601.0088509119048 L403.39570294634444 -583.5553685533138 L359.6514238949688 -581.7695301863977" style="stroke: none; stroke-width: 0; fill: none;"></path><path d="M357.51249728248575 -580.2204853735003 C359.5921211403148 -588.8661988499409, 360.1227638458392 -599.0805929512562, 357.3392590397763 -602.3661080643972 M358.84169713162686 -582.7259496767323 C358.11312148027633 -588.0642148136311, 359.7572102904457 -594.8237791724912, 358.6735336183525 -603.691848176783 M358.492753403073 -601.0909322468826 C371.0480401120384 -602.1676104677189, 384.29855965491674 -602.5231209270207, 403.62696472731136 -603.1983133882046 M358.69196684717355 -602.7243013308868 C371.27114387681297 -603.5909374427894, 385.16756276282746 -602.6481724755743, 404.1276160491903 -602.8605053673 M402.76060385618183 -604.5997665840521 C405.0205607475622 -598.0612819532747, 404.7060840611641 -589.8769741838872, 405.45132863795214 -583.6964185426535 M403.78163975941146 -602.6331270119691 C403.18743275743066 -597.573225011583, 404.1181168929135 -592.9588844088548, 403.8098683151413 -581.1014662749593 M402.10985342883816 -583.3832865017555 C388.2189069923316 -580.1030707382014, 369.482831157427 -582.3090417399521, 357.4731645730688 -581.5230971100161 M404.79484615640854 -581.9541788344895 C389.44928999832285 -581.7537384768067, 376.4888593034416 -582.4816058522003, 359.705821287346 -581.9647532989546 M359 -582 C359 -582, 359 -582, 359 -582 M359 -582 C359 -582, 359 -582, 359 -582" style="stroke: #000000; stroke-width: 1; fill: none;"></path></g>
<text text-anchor="start" x="362" y="-588.8" font-family="Times,serif" font-size="14.00" fill="#000000">builder</text>
</g>
<!-- builder&#45;&gt;service2 -->
<g id="edge8" class="edge">
<title>builder-&gt;service2</title>
<g><path d="M355.7941,-574.7391C349.9633,-569.5453 344.2348,-563.5116 340,-557 304.9587,-503.1192 284.8165,-432.4954 273.8129,-380.1434" style="stroke: none; stroke-width: 0; fill: none;"></path><path d="M353.8945125736073 -574.7374304596365 M353.8945125736073 -574.7374304596365 C348.8952234848504 -570.9710890666684, 343.55461768351825 -565.5004103297028, 340.2023382382844 -556.9307606061471 M353.40261222693016 -572.9546628915397 C348.09180363476173 -569.5768570117309, 344.96119285469774 -563.2236652582368, 339.9880861816925 -558.2324632387155 M339.9880861816925 -558.2324632387155 C304.6382622742136 -504.22310315094404, 286.3394447843999 -433.600261316447, 272.1276383922061 -381.66368583705196 M338.11265267669336 -556.293765538075 C304.0023924887673 -504.57405749134097, 286.29627691442175 -431.4922983523888, 272.08457800723653 -381.0048501160108" style="stroke: #000000; stroke-width: 1; fill: none;"></path></g>
<g><path d="M276.43910311572824 -379.3708744278962 L271.61260196048175 -368.8337648145937 L270.55862620109565 -380.6643238493177 L278.1079184824131 -379.693869216368" style="stroke: none; stroke-width: 0; fill: #000000;"></path><path d="M276.76565750148745 -378.6748693413216 C275.16721934805463 -375.2152143372416, 273.79488935318926 -371.51910227220276, 272.31844358763584 -369.8265147217467 M277.48001061026474 -379.23158520792975 C275.890386190645 -377.2715438006768, 273.8455013470364 -374.9205332723862, 272.2227858234159 -370.5830407279186 M271.7576078486075 -369.7797539188491 C271.03461422930866 -373.3147046025454, 270.2182485778084 -376.2357609972365, 271.31678200668733 -380.0438173323083 M272.0077631755532 -370.1002076845536 C271.0894441496072 -374.55501012590213, 270.8660149868999 -378.23874600059787, 270.3690088478472 -380.7289829802423 M270.5700607272974 -380.5367589490816 C272.95938438477464 -381.04003750970395, 274.35580251050885 -379.29907115368326, 276.93327713272924 -380.0041724710195 M270.22524776582736 -381.03682987616884 C272.0591751536648 -380.5505034650591, 273.52457699704723 -380.0306854570002, 277.2700398202857 -379.09293223989926 M277.2248 -379.3576 C277.2248 -379.3576, 277.2248 -379.3576, 277.2248 -379.3576 M277.2248 -379.3576 C277.2248 -379.3576, 277.2248 -379.3576, 277.2248 -379.3576" style="stroke: #000000; stroke-width: 1; fill: none;"></path></g>
</g>
<!-- builder&#45;&gt;service3 -->
<g id="edge9" class="edge">
<title>builder-&gt;service3</title>
<g><path d="M406.1563,-574.9005C422.7019,-563.8195 445.245,-550.2321 467,-542 484.7724,-535.2749 492.9292,-544.1398 509,-534 518.3647,-528.0914 526.7163,-520.0816 533.9648,-511.4208" style="stroke: none; stroke-width: 0; fill: none;"></path><path d="M406.2413534687251 -573.5734484076502 M406.2413534687251 -573.5734484076502 C421.33382512167833 -565.7353061988173, 445.7575053187289 -549.3563484494318, 465.9973208574511 -543.5038228240202 M405.59957180739815 -573.0055604854148 C422.7567777333897 -564.2693340017853, 445.8235980626307 -551.7388435621805, 465.1382547740262 -543.6132934913593 M465.1382547740262 -543.6132934913593 C484.47038781779264 -535.0482781512025, 494.75134025913474 -543.9975561620063, 508.8189672737836 -533.6787224668308 M465.5633836636603 -544.3307406526073 C487.1561929298235 -535.9988499149383, 495.0248297490223 -546.0169012540589, 507.4115385439851 -535.4110950857986 M507.4115385439851 -535.4110950857986 C518.6164461902088 -527.7313094770518, 527.2466242931256 -518.9529264488081, 532.4455180956398 -511.2898125769755 M507.9835585034883 -534.2896219310336 C518.9696595596001 -526.6982314545063, 526.3743858338303 -522.4410041585559, 534.1434654686311 -510.48818586407157" style="stroke: #000000; stroke-width: 1; fill: none;"></path></g>
<g><path d="M535.2449233041614 -513.8651648669721 L539.9916742670706 -502.54732153706556 L530.744285619447 -509.1729275470318 L538.0473197972723 -511.8577376157226" style="stroke: none; stroke-width: 0; fill: #000000;"></path><path d="M537.0478566393306 -512.4088116289636 C537.8794503110837 -508.9114272723933, 539.3770969622976 -507.0745443695752, 540.637960479092 -503.083786973621 M536.9753153524688 -513.1760789366863 C538.3729652658845 -509.9516984565223, 538.8777586054647 -506.4154439034387, 539.7848841764143 -503.5187685173547 M540.6917132341076 -502.8356154488225 C537.0712438310012 -504.9902693037858, 532.6701241676612 -506.71440642054284, 530.6620891109969 -509.53544664988715 M540.804924492955 -503.29692514871044 C537.585859927249 -504.7011061327059, 534.726429012708 -506.5597826009708, 531.4703578980542 -509.0979988609444 M531.9859590572421 -509.66218049064156 C533.3753871284117 -510.9749831161068, 535.0779971274267 -512.3999597392954, 536.5514859113047 -513.5555778055768 M531.5046435093393 -508.7894463459929 C533.2449424707638 -510.26210973878943, 535.0441093636244 -512.1252669833265, 536.956374351321 -513.0195960535607 M536.8954 -513.3555 C536.8954 -513.3555, 536.8954 -513.3555, 536.8954 -513.3555 M536.8954 -513.3555 C536.8954 -513.3555, 536.8954 -513.3555, 536.8954 -513.3555" style="stroke: #000000; stroke-width: 1; fill: none;"></path></g>
<text text-anchor="middle" x="500.5" y="-545.8" font-family="Times,serif" font-size="14.00" fill="#000000">localhost:80</text>
</g>
<!-- mysql_old_cluster -->
<g id="node4" class="node">
<title>mysql_old_cluster</title>
<g><path d="M404.0985013374298 -129.3500971062901 L279.6702627040238 -130.3630432267796 L277.07713021112073 -41.44396504810492 L402.1111462719634 -41.77818195014604 L403.6925256950595 -130.9722538522413" style="stroke: none; stroke-width: 0; fill: #6495ed;"></path><path d="M405.4781045993472 -131.76461157423682 C378.03486806829955 -131.25324654756892, 352.0384749992923 -128.56160862473604, 278.5928196253146 -130.93331519891177 M403.89196655308314 -130.34901987137872 C368.9158531615745 -128.57014084308705, 332.06247247130074 -128.96777732132713, 277.1768450287691 -130.54098655698294 M276.81776906430844 -129.46298113509224 C279.7063460090267 -109.9513708403817, 277.4784764592241 -92.54875260604074, 278.4282814454742 -42.09465185883465 M278.4359713478673 -130.54659704027378 C277.90139408296454 -98.01435687243496, 279.149777076935 -66.11984930717232, 278.4561464887818 -43.368128526215415 M276.1897598984002 -44.35540259954485 C317.0343352399625 -43.3376337506819, 357.58609071238675 -44.6507805153868, 404.92166986250123 -43.94472321764677 M277.054741021006 -43.524793381191266 C303.9395194699863 -41.59516074549679, 328.31145872630435 -42.09457094744472, 403.3614586690081 -42.94548462898794 M405.3112351162108 -42.86422522697738 C402.12052763382263 -69.50199867405503, 402.32622558577197 -92.08829998047074, 405.14570190604314 -128.89560229694007 M404.1998818429402 -43.10029983994096 C404.33325877504797 -76.90979195996705, 403.4495143110376 -110.81505368308585, 404.5222964680107 -129.27577912236333 M404 -130 C404 -130, 404 -130, 404 -130 M404 -130 C404 -130, 404 -130, 404 -130" style="stroke: transparent; stroke-width: 1; fill: none;"></path></g>
<g><path d="M286.17614266191333 -105.6794823020424 L285.08517788855096 -126.0467003938814 L394.7579932975617 -123.74286336087283 L394.8552989778931 -105.599255086065 L285.3021604349953 -105.92474922884479" style="stroke: none; stroke-width: 0; fill: none;"></path><path d="M286.9401110053207 -103.90540352079105 C284.43630065653224 -109.60454578157652, 284.13322791299896 -112.2641348377502, 286.6323777478002 -125.29455003495032 M286.39662135211256 -104.96594227949906 C284.9383828381891 -111.83493041571938, 285.96129902825544 -121.45774315926288, 285.81522938358677 -124.7290418785402 M287.8909352843726 -126.5902761651764 C316.26313337727055 -124.83142224638846, 344.90499105831634 -125.41835278089452, 395.42218790890547 -125.26585193460475 M285.8857723820351 -125.59956960481563 C308.4733675824337 -125.85879196247572, 330.50660182694355 -126.57112582578627, 395.2129355406928 -124.76671801714636 M394.7333997701821 -126.1438639350456 C397.76934912461076 -120.72856668645822, 394.5455157082501 -110.47704433188751, 396.44862528820664 -105.35145320400234 M396.7976825211727 -126.07983825735197 C396.76433903993666 -118.01139585136193, 396.3360509911583 -111.68566397892539, 395.6491183772496 -104.96833035560142 M394.4880730736468 -105.31066168353999 C360.4237698557433 -105.79619071315922, 326.76042523250135 -105.21505226218426, 287.6307144219984 -106.24963347840891 M395.51968292664617 -103.90769561137769 C372.9192994155909 -105.83514279668088, 347.84477953260733 -104.83731219337342, 286.7602227323057 -105.09302057381878 M286 -104.5 C286 -104.5, 286 -104.5, 286 -104.5 M286 -104.5 C286 -104.5, 286 -104.5, 286 -104.5" style="stroke: #000000; stroke-width: 1; fill: none;"></path></g>
<text text-anchor="start" x="292.5" y="-111.3" font-family="Times,serif" font-size="14.00" fill="#000000">mysql-old-cluster</text>
<g><path d="M285.4936353526975 -74.08434413050455 L284.3014724669534 -104.02022107057842 L394.7384963259523 -104.40056014390407 L396.2589818119141 -75.38206740979379 L286.74386678732543 -73.97554264678115" style="stroke: none; stroke-width: 0; fill: none;"></path><path d="M287.86901345002514 -76.53018213662966 C286.31851452538604 -84.29506027734706, 284.6941383614435 -88.2988782260216, 286.32112612324073 -105.825128327482 M285.33686476216013 -76.49936918580777 C286.0280716669197 -83.26770475654875, 286.0400823340009 -92.24193331836089, 285.17615343588176 -103.69898598145825 M287.5506434046489 -103.94307278848609 C319.87604245484073 -103.18914219599445, 356.79112941342 -102.59033454210729, 396.06470726938784 -103.06605886102537 M285.88131472768504 -105.06490109477195 C314.1726019401083 -104.76659712846414, 341.89132034978604 -103.5809811371345, 396.21010109442267 -104.26437145448074 M396.19881570276675 -105.5439779310848 C395.86722463844944 -92.85021105707324, 395.24480969230393 -81.35172255294813, 397.13562548856555 -73.89607287296991 M396.86119499373456 -104.88341015155702 C396.90134503090263 -95.998236733384, 395.76246684866464 -88.51668842232306, 396.6456844776251 -75.31299634577691 M397.72150576891187 -76.14541711869461 C368.3792165484115 -75.20768791914543, 337.7616808205206 -75.23734731036885, 284.14894946177463 -75.03075975800134 M395.7255934424957 -75.97317747256302 C365.01231322402094 -74.81428666674057, 335.7975260795703 -74.21707126725241, 286.4487304582353 -76.07779088832983 M286 -75.5 C286 -75.5, 286 -75.5, 286 -75.5 M286 -75.5 C286 -75.5, 286 -75.5, 286 -75.5" style="stroke: #000000; stroke-width: 1; fill: none;"></path></g>
<text text-anchor="start" x="293" y="-86.3" font-family="Times,serif" font-size="14.00" fill="#000000">version: </text>
<text text-anchor="start" x="358" y="-86.3" font-family="Times,serif" font-size="14.00" fill="#000000">5.6</text>
<g><path d="M287.06370622196215 -45.07157824304764 L285.4601351060725 -75.58733416266638 L395.6630474579618 -74.73669737414662 L394.48572720145535 -46.18807543027602 L286.82299767489206 -47.85788008892992" style="stroke: none; stroke-width: 0; fill: none;"></path><path d="M285.2005514928224 -47.80124000982188 C286.6807893844801 -58.41298562911825, 286.7656013222042 -68.12600839230495, 284.20379040338037 -75.45798144365463 M285.82382578158973 -46.01851419456672 C285.22043824566623 -58.12645562303651, 286.8791796375087 -69.97291413642307, 286.0977862369185 -76.37215737082364 M286.87530996401046 -76.46765094222317 C315.77167520187476 -72.88485419272229, 344.04080287696274 -75.21262878504025, 395.4061355759805 -74.1059160896122 M285.6011522483859 -76.13117896306528 C308.51631377435695 -76.07650302252605, 331.9481377054541 -77.16901840343864, 396.3433998395307 -76.03987366918626 M396.51838178499605 -77.20284710504458 C394.6887547322475 -64.99986079154728, 395.55661804975176 -57.26404635552622, 397.3452308650157 -47.73392965989073 M396.30700193122726 -74.87422083720489 C396.63174044367497 -66.58617148111335, 395.9013673767214 -57.8678302221042, 396.13326461241627 -45.71627407150717 M396.7200761351938 -45.04023646143058 C367.77936746150573 -47.92059570731955, 341.5304802465892 -47.00607152677705, 284.5139651406342 -46.155264460489235 M395.3115180439992 -45.6805495263713 C367.4768100583583 -45.37504366737242, 340.150312104519 -45.38393187517772, 286.1382329951543 -45.995209291036595 M286 -46.5 C286 -46.5, 286 -46.5, 286 -46.5 M286 -46.5 C286 -46.5, 286 -46.5, 286 -46.5" style="stroke: #000000; stroke-width: 1; fill: none;"></path></g>
<text text-anchor="start" x="293" y="-57.3" font-family="Times,serif" font-size="14.00" fill="#000000">owner: </text>
<text text-anchor="start" x="338" y="-57.3" font-family="Times,serif" font-size="14.00" fill="#000000">dba team</text>
</g>
<!-- service3&#45;&gt;mysql_old_cluster -->
<g id="edge5" class="edge">
<title>service3-&gt;mysql_old_cluster</title>
<g><path d="M557.4264,-406.9115C544.4084,-350.3866 516.9395,-255.7169 468,-188 452.8938,-167.0977 432.3923,-148.1861 412.2713,-132.5068" style="stroke: none; stroke-width: 0; fill: none;"></path><path d="M558.0016380765753 -405.34081556121436 M558.0016380765753 -405.34081556121436 C544.7481177560937 -352.07973997835325, 515.689619071685 -257.5431395099983, 469.21139075946047 -187.53589119632247 M558.5145096321949 -405.4117642500388 C543.8988483347609 -348.74826350692194, 514.7993526967814 -255.42253333804783, 467.9236539930307 -189.48849773064998 M467.9236539930307 -189.48849773064998 C452.67153076487773 -168.29590156195445, 432.89045289955 -148.2401748929701, 412.7866466416943 -132.7532268806816 M468.26222957738617 -190.03666938910075 C453.75365345287264 -168.24617903924658, 432.64725612114654 -146.3521252300819, 410.2475606721845 -134.97585608774781" style="stroke: #ff0000; stroke-width: 1; fill: none;"></path></g>
<g><path d="M415.1952791841147 -129.20397476949253 L403.2767158843666 -126.46367759613769 L412.10488289819057 -134.55047283515054 L414.47557453144174 -128.83218110046667" style="stroke: none; stroke-width: 0; fill: #ff0000;"></path><path d="M413.93484232284226 -128.81736205071627 C412.26267630038336 -127.85233447335098, 408.23016885567927 -126.71147345466139, 403.9522928616401 -126.70422688742357 M414.6838324058142 -129.36727245189348 C411.227484584881 -128.94772549753392, 408.5748979657203 -127.73571382411941, 404.2078051806062 -126.38447089899437 M403.58701082690857 -126.32533077263889 C405.58142520454976 -130.02331558533604, 409.27268445899864 -132.5541476793823, 409.8563160490529 -136.28073960986677 M404.2572092929176 -126.0821239239048 C405.84361630696293 -128.52399618803173, 408.18018593168637 -131.11467824314846, 410.36164772669895 -135.16534331878736 M410.0919987393624 -135.10315473989593 C411.188351046504 -134.254397181827, 411.62712418078434 -133.10215298984164, 413.6860963915934 -129.7487634860338 M410.1336791797898 -135.0122601456282 C411.9464714865292 -133.00545906126302, 413.2377698948362 -131.1823166248708, 414.48088661061024 -129.6789420257638 M414.37 -129.7058 C414.37 -129.7058, 414.37 -129.7058, 414.37 -129.7058 M414.37 -129.7058 C414.37 -129.7058, 414.37 -129.7058, 414.37 -129.7058" style="stroke: #ff0000; stroke-width: 1; fill: none;"></path></g>
</g>
<!-- service3&#45;&gt;redis -->
<g id="edge7" class="edge">
<title>service3-&gt;redis</title>
<g><path d="M523.8983,-406.921C514.66,-395.3069 505.4495,-382.5977 498,-370 453.5542,-294.8384 495.1641,-238.6001 424,-188 395.8909,-168.0135 298.4879,-197.8898 269,-180 259.631,-174.316 251.6797,-166.3854 244.9855,-157.5231" style="stroke: none; stroke-width: 0; fill: none;"></path><path d="M523.969369450049 -408.15104490378866 M523.969369450049 -408.15104490378866 C516.0636714322594 -396.8420881889718, 505.5834107993637 -382.959272746266, 497.01015422758474 -368.99123635621066 M525.2932864607425 -409.98855991889616 C512.2770304379928 -395.4277178555449, 503.7650300233644 -383.9866274537894, 496.7813899649169 -371.3666496007283 M496.7813899649169 -371.3666496007283 C453.9294053571616 -293.07823943074936, 495.6494629911467 -239.20076165361323, 422.3903289024707 -189.33294675748598 M495.7903403118826 -369.5145176084752 C453.13230609641846 -295.09816913528454, 496.6637354750204 -238.70241091472178, 425.1607820108947 -187.11828227163647 M425.1607820108947 -187.11828227163647 C397.26499344797 -166.08049345416126, 297.5238699391558 -197.23989238051502, 269.5318284407538 -179.38391709393144 M423.79972938451243 -186.3633969833546 C398.17613271489444 -170.16125264232537, 299.84276253151603 -196.01489296308984, 268.28261146867777 -177.98520264160123 M268.28261146867777 -177.98520264160123 C258.8331302236156 -172.81478160643547, 253.17859585947662 -165.0261037209668, 243.071282110442 -157.44617740741222 M268.11173662719006 -179.95363476645304 C261.45561793715973 -173.4663589003298, 253.25869537636487 -167.9148144793571, 244.96381764156794 -158.47403655478965" style="stroke: #000000; stroke-width: 1; fill: none;"></path></g>
<g><path d="M246.64935518378718 -153.71501488818777 L239.54585796224964 -148.69572026925218 L241.1075664010224 -158.4613240208523 L246.96847837677473 -153.58463372025474" style="stroke: none; stroke-width: 0; fill: #000000;"></path><path d="M246.98332750807177 -154.87132845998426 C243.9860360685852 -152.96175090578242, 242.59578313448108 -151.4305888854968, 239.56569795614598 -149.34196593333402 M248.2795323961701 -155.7528087812305 C245.50415026835228 -153.92113631592488, 242.22418607535928 -151.49696480398367, 239.62006596136874 -149.64364701630907 M238.5098404447309 -148.9324799815199 C240.88801711938106 -154.22104435839788, 241.31377408218106 -157.1903392848581, 241.20224272791035 -159.76627409519088 M238.98605624212777 -148.91212730605983 C240.44797149924685 -152.10200570658424, 240.1829714487668 -153.8805439885504, 241.62113600766605 -159.26290925298343 M241.55822346125655 -159.24699173361108 C243.5019450627692 -158.10113277615844, 244.8434179721712 -156.56181672049004, 247.55312731786944 -156.08063282242125 M241.9265517377973 -159.35480366956608 C243.6626899907837 -158.254927688959, 244.69326262695736 -157.10765746133646, 247.95305024467308 -155.28919318158984 M247.761 -155.3835 C247.761 -155.3835, 247.761 -155.3835, 247.761 -155.3835 M247.761 -155.3835 C247.761 -155.3835, 247.761 -155.3835, 247.761 -155.3835" style="stroke: #000000; stroke-width: 1; fill: none;"></path></g>
</g>
<!-- registry -->
<g id="node8" class="node">
<title>registry</title>
<g><path d="M500.25730516998397 -472.23116867789224 L437.3945593685157 -472.63396930862103 L435.8375188032274 -437.54672825343033 L501.4149951675562 -436.4180774042371 L498.1861622116654 -473.321729768557" style="stroke: none; stroke-width: 0; fill: #87ceeb;"></path><path d="M498.453489258717 -474.94167517991053 C476.9729965449143 -472.20808714512486, 449.28105927332933 -472.21299754188925, 434.59657080460886 -474.8093934135996 M499.7628223948733 -472.9854849486254 C484.70987996683266 -472.39766859461827, 471.75488600097617 -473.68640302753204, 436.823021026247 -472.24971121637606 M435.62565061470156 -471.5919953732942 C434.0735618619041 -463.6321175894403, 435.9632131481552 -452.93099192763833, 434.4561117412918 -435.2614694374017 M435.19037242471165 -472.77819812390106 C435.37307563325624 -461.6838102942399, 436.69143673764484 -451.0087849157298, 435.86119987788624 -437.08309660250393 M436.95104760642965 -436.7646419243049 C459.6358315199106 -438.31703689630945, 482.1702295559 -435.22648955249457, 501.80152225022994 -437.08394553578245 M436.13945290455683 -436.0187404008158 C450.6960081928835 -436.0909929465087, 464.65095721329953 -437.6773202068922, 500.4442449958026 -437.29057909077954 M499.2031157405446 -435.81513793111196 C499.04216857636584 -445.5047795691106, 501.7388647401726 -451.32334284060283, 501.90550163749674 -474.2052987455996 M500.2364110148011 -436.22701086441026 C500.45241171623695 -447.31938260365274, 500.79212928071763 -459.7352564847842, 500.29433156690925 -472.48686526281733 M500 -473 C500 -473, 500 -473, 500 -473 M500 -473 C500 -473, 500 -473, 500 -473" style="stroke: transparent; stroke-width: 1; fill: none;"></path></g>
<g><path d="M444.95799802207637 -444.3300194274806 L443.9695037186835 -464.8372275260738 L492.97328368682156 -463.1349468782971 L493.4892170845429 -442.7861214175179 L442.66471968676865 -444.54392493880874" style="stroke: none; stroke-width: 0; fill: none;"></path><path d="M444.4354981467056 -445.1286501613722 C442.7058460771268 -450.83100414758434, 442.83656630435297 -460.2794507661443, 442.81343467336933 -465.17271276568715 M443.34063226814675 -444.6638321544005 C444.5311424286574 -450.60021009496376, 443.29554044675746 -458.8301168077127, 443.61817648477216 -465.28965679482616 M445.8248420499638 -463.88384377796973 C453.19967911064225 -464.3050719724887, 464.529321578192 -464.9647254563706, 492.7952998380417 -463.90023896885594 M444.28119359614556 -464.4753472317504 C458.9209425966368 -464.77692454082694, 473.7470524925738 -464.5123731477511, 492.08771755475317 -465.5143081875556 M492.97663731296296 -465.6431756873889 C490.45843637742405 -455.9134737495547, 491.438131215897 -446.83287389111996, 492.0129352456316 -442.38530846465727 M492.91278531647436 -465.2791211302249 C491.6988078209594 -459.7338675503817, 491.61287144835325 -453.0928975015082, 491.39431778608275 -443.3270780715847 M493.58972439196424 -445.09125277950096 C476.4587013572822 -444.51147500505976, 455.7964626425317 -444.8182415968727, 443.88544626842105 -444.4285663739468 M491.2438561936841 -444.6460063644313 C474.99666084772883 -443.57698119014844, 458.0169239750324 -443.3065074357043, 443.37397305974093 -443.1991969602259 M444 -444 C444 -444, 444 -444, 444 -444 M444 -444 C444 -444, 444 -444, 444 -444" style="stroke: #000000; stroke-width: 1; fill: none;"></path></g>
<text text-anchor="start" x="447" y="-450.8" font-family="Times,serif" font-size="14.00" fill="#000000">registry</text>
</g>
<!-- registry&#45;&gt;builder -->
<g id="edge3" class="edge">
<title>registry-&gt;builder</title>
<g><path d="M458.6482,-473.2478C450.1302,-489.4987 436.9413,-513.7648 424,-534 416.9577,-545.0115 408.6113,-556.7256 401.1543,-566.7893" style="stroke: none; stroke-width: 0; fill: none;"></path><path d="M460.5612788426129 -474.6921990139233 M460.5612788426129 -474.6921990139233 C449.6989340849011 -488.9977329115016, 437.03223201480796 -515.2933776928807, 423.3042171198845 -532.4097535215543 M462.01095167428014 -472.8944432027729 C448.21649168084787 -490.04161011832133, 435.16053456828047 -511.7074147562618, 425.2824725694426 -533.1510161156461 M425.2824725694426 -533.1510161156461 C418.62184402414977 -545.4031531733156, 407.8700794603452 -555.0512259611218, 400.44685229092727 -567.5426173781823 M426.2566637694188 -532.0485020498556 C416.17786225228826 -545.1635581708748, 406.73002795116565 -554.504868272783, 401.72908600584856 -566.3057175258831" style="stroke: #000000; stroke-width: 1; fill: none;"></path></g>
<g><path d="M399.3964334424308 -564.677026137564 L396.35606509504106 -574.5721392694871 L404.79886697028627 -567.2887076319589 L396.6624294674808 -562.8740002582971" style="stroke: none; stroke-width: 0; fill: #000000;"></path><path d="M398.8236011165539 -564.290780251275 C397.4644092702371 -567.7802300421305, 396.38656133724743 -570.3805703195856, 394.9492725054364 -575.5093710658248 M397.9537161395839 -564.9238673086893 C397.7421882867502 -566.9324525056725, 397.32684125429154 -568.926147067665, 395.36232488072125 -574.6291585696737 M395.35637666380654 -573.9282385068564 C399.3729294486356 -573.5563212961447, 402.57525640292147 -570.069612142423, 404.74541520682436 -569.612134998784 M395.04187345233646 -574.7697289004199 C397.691972902182 -573.5656901593761, 400.3807274140151 -571.6449314544849, 404.1436326281578 -568.6549513815781 M403.4105172633141 -568.3223916406112 C402.44434992210876 -567.3899610274236, 400.04923960870457 -565.7484445586509, 398.5663717332481 -564.1177879027698 M403.6677069889385 -569.0907495573355 C402.5396010567003 -567.7000308715485, 402.04892562439653 -566.8707555982097, 398.12324381662506 -564.8650138665954 M398.3448 -564.7021 C398.3448 -564.7021, 398.3448 -564.7021, 398.3448 -564.7021 M398.3448 -564.7021 C398.3448 -564.7021, 398.3448 -564.7021, 398.3448 -564.7021" style="stroke: #000000; stroke-width: 1; fill: none;"></path></g>
</g>
</g>
</svg>